<?xml version="1.0" encoding="UTF-8"?>
<svg width="24px" height="25px" viewBox="0 0 24 25" version="1.1" xmlns="http://www.w3.org/2000/svg" xmlns:xlink="http://www.w3.org/1999/xlink">
    <!-- Generator: Sketch 48.2 (47327) - http://www.bohemiancoding.com/sketch -->
    <title>Page 1</title>
    <desc>Created with Sketch.</desc>
    <defs>
        <path d="M0,5.44928637 C0,8.45882933 2.4327504,10.8984133 5.43370429,10.8984133 C6.54499205,10.8984133 7.57853736,10.5639311 8.43926868,9.98966748 L12.3965024,13.958017 C12.6411765,14.2033784 13.0381558,14.2033784 13.2828299,13.958017 C13.527663,13.7124962 13.527663,13.3145612 13.2828299,13.0690404 L9.39936407,9.17450653 C10.3098569,8.20023535 10.8674086,6.89004707 10.8674086,5.44928637 C10.8674086,2.4397434 8.43465819,0 5.43370429,0 C2.4327504,0 0,2.4397434 0,5.44928637 Z M1.08680445,5.44928637 C1.08680445,3.04158822 3.03290938,1.08985727 5.43370429,1.08985727 C7.83449921,1.08985727 9.78076312,3.04158822 9.78076312,5.44928637 C9.78076312,7.85682508 7.83449921,9.80855603 5.43370429,9.80855603 C3.03290938,9.80855603 1.08680445,7.85682508 1.08680445,5.44928637 Z" id="path-1"></path>
    </defs>
    <g id="web-watch" stroke="none" stroke-width="1"  fill-rule="evenodd" transform="translate(-164.000000, -642.000000)">
        <g id="Group" transform="translate(164.000000, 340.000000)">
            <g id="Page-1" transform="translate(0.000000, 302.000000)">
                <g id="Group-11" >
                    <path d="M1.51553423,1.35135135 C1.42506946,1.35135135 1.35135135,1.42480127 1.35135135,1.51530207 L1.35135135,23.4846979 C1.35135135,23.5751987 1.42506946,23.6486486 1.51553423,23.6486486 L18.754736,23.6486486 C18.8452008,23.6486486 18.9189189,23.5751987 18.9189189,23.4846979 L18.9189189,1.51530207 C18.9189189,1.42480127 18.8452008,1.35135135 18.754736,1.35135135 L1.51553423,1.35135135 Z M2.01155354,25 C0.902413864,25 0,24.08875 0,22.96875 L0,2.03125 C0,0.91125 0.902413864,0 2.01155354,0 L18.2587167,0 C19.3678564,0 20.2702703,0.91125 20.2702703,2.03125 L20.2702703,22.96875 C20.2702703,24.08875 19.3678564,25 18.2587167,25 L2.01155354,25 Z" id="Fill-1"></path>
                    <path d="M15.0095936,7.265625 L5.18361873,7.265625 C4.92722302,7.265625 4.71941407,7.05578125 4.71941407,6.796875 C4.71941407,6.53796875 4.92722302,6.328125 5.18361873,6.328125 L15.0095936,6.328125 C15.2659893,6.328125 15.4737982,6.53796875 15.4737982,6.796875 C15.4737982,7.05578125 15.2659893,7.265625 15.0095936,7.265625" id="Fill-3"></path>
                    <path d="M15.0095936,10.078125 L5.18361873,10.078125 C4.92722302,10.078125 4.71941407,9.86828125 4.71941407,9.609375 C4.71941407,9.35046875 4.92722302,9.140625 5.18361873,9.140625 L15.0095936,9.140625 C15.2659893,9.140625 15.4737982,9.35046875 15.4737982,9.609375 C15.4737982,9.86828125 15.2659893,10.078125 15.0095936,10.078125" id="Fill-5"></path>
                    <path d="M15.0095936,12.890625 L5.18361873,12.890625 C4.92722302,12.890625 4.71941407,12.6807812 4.71941407,12.421875 C4.71941407,12.1629687 4.92722302,11.953125 5.18361873,11.953125 L15.0095936,11.953125 C15.2659893,11.953125 15.4737982,12.1629687 15.4737982,12.421875 C15.4737982,12.6807812 15.2659893,12.890625 15.0095936,12.890625" id="Fill-7"></path>
                    <path d="M9.12935837,15.703125 L5.18361873,15.703125 C4.92722302,15.703125 4.71941407,15.4932812 4.71941407,15.234375 C4.71941407,14.9754687 4.92722302,14.765625 5.18361873,14.765625 L9.12935837,14.765625 C9.38575407,14.765625 9.59356303,14.9754687 9.59356303,15.234375 C9.59356303,15.4932812 9.38575407,15.703125 9.12935837,15.703125" id="Fill-9"></path>
                </g>
                <g id="Group-14" transform="translate(10.135135, 6.756757)">
                    <mask id="mask-2" fill="white">
                        <use xlink:href="#path-1"></use>
                    </mask>
                    <g id="Clip-13"></g>
                    <polygon id="Fill-12"  mask="url(#mask-2)" points="-0.79491256 14.9391436 14.2613672 14.9391436 14.2613672 -0.79714546 -0.79491256 -0.79714546"></polygon>
                </g>
            </g>
        </g>
    </g>
</svg>