<?xml version="1.0" encoding="UTF-8"?>
<svg width="22px" height="25px" viewBox="0 0 22 25" version="1.1" xmlns="http://www.w3.org/2000/svg" xmlns:xlink="http://www.w3.org/1999/xlink">
    <!-- Generator: Sketch 48.2 (47327) - http://www.bohemiancoding.com/sketch -->
    <title>dictionary-book-with-letters-a-to-z</title>
    <desc>Created with Sketch.</desc>
    <defs></defs>
    <g id="web-watch" stroke="none" stroke-width="1" fill-rule="evenodd" transform="translate(-164.000000, -715.000000)">
        <g id="Group" transform="translate(164.000000, 340.000000)" f fill-rule="nonzero">
            <g id="dictionary-book-with-letters-a-to-z" transform="translate(0.000000, 375.000000)">
                <path d="M5.72217391,10.3163587 L4.43494565,10.3163587 L4.43494565,7.89565217 L5.7136413,7.89565217 L5.7136413,6.60815217 L6.85581522,6.60815217 L6.85581522,7.87847826 L8.14282609,7.87847826 L8.14282609,10.3082065 L6.85581522,10.3082065 L6.85581522,10.316413 L5.72217391,10.316413 L5.72217391,10.3163587 Z M1.34788043,21.6777174 C1.34853261,21.7375 1.34951087,21.7821196 1.35016304,21.8113587 C1.35048913,21.8293478 1.34728261,21.8460326 1.34630435,21.8636957 C1.38646739,22.8541304 2.20255435,23.6472283 3.20206522,23.6472283 L19.7107609,23.6472283 L19.7107609,21.8286957 C19.7107609,21.4656522 20.0053804,21.1708152 20.3686413,21.1708152 C20.7316304,21.1708152 21.0265217,21.4657065 21.0265217,21.8286957 L21.0265217,24.3050543 C21.0265217,24.6684239 20.7315761,24.9629348 20.3686413,24.9629348 L3.10277174,24.9629348 C3.06858696,24.9629348 3.03565217,24.9580978 3.0023913,24.9529891 C1.34451087,24.8491848 0.0264673913,23.471413 0.0264673913,21.7875 C0.0264673913,21.748913 0.0310869565,21.7116304 0.0323913043,21.6734239 C0.0120108696,19.72 0.0323913043,4.86038043 0.034673913,3.24358696 C0.0321195652,3.22059783 0.0277717391,3.1986413 0.0277717391,3.17516304 C0.0277717391,1.42418478 1.45211957,0 3.20315217,0 L4.25440217,0 L20.2073913,0 L20.3679891,0 C20.7313043,0 21.0258696,0.294728261 21.0258696,0.657880435 L21.0258696,19.2523913 C21.0258696,19.6153804 20.73125,19.9102174 20.3679891,19.9102174 C20.3641304,19.9102174 20.3609239,19.9089674 20.3570652,19.9089674 C20.3088587,19.9205435 20.2581522,19.9282065 20.206413,19.9282065 L3.20206522,19.9282065 C2.21391304,19.9279348 1.40538043,20.7036957 1.34788043,21.6777174 Z M13.1710326,6.60815217 L18.3028261,6.60815217 L18.3028261,7.74195652 L17.0155978,7.74195652 L17.0155978,9.02945652 L15.7370652,9.02945652 L15.7370652,10.3166848 L14.4495652,10.3166848 L14.4495652,11.5956522 L13.1704348,11.5956522 L13.1704348,14.3066304 L19.7352174,14.3066304 L19.7352174,12.8822283 L14.5947826,12.8822283 L14.5947826,11.748587 L15.8822826,11.748587 L15.8822826,10.461413 L17.1608152,10.461413 L17.1608152,9.17391304 L18.4482609,9.17391304 L18.4482609,7.89565217 L19.735163,7.89565217 L19.7352174,5.17592391 L13.1710326,5.17592391 L13.1710326,6.60815217 Z M10.2689674,10.461413 L13.3268478,10.461413 L13.3268478,9.02918478 L10.2689674,9.02918478 L10.2689674,10.461413 Z M3.01141304,14.3059239 L4.43532609,14.3059239 L4.43532609,11.7485326 L5.72222826,11.7485326 L5.72222826,11.7403804 L8.14288043,11.7403804 L8.14288043,14.3066304 L9.57516304,14.3066304 L9.57516304,7.74195652 L8.28777174,7.74195652 L8.28777174,6.44625 L7.00054348,6.44625 L7.00054348,5.17592391 L5.57652174,5.17592391 L5.57652174,6.46309783 L4.28929348,6.46309783 L4.28929348,7.75059783 L3.01027174,7.75059783 L3.01027174,14.3059239 L3.01141304,14.3059239 Z" id="Shape"></path>
            </g>
        </g>
    </g>
</svg>