<?xml version="1.0" encoding="UTF-8"?>
<svg width="24px" height="25px" viewBox="0 0 24 25" version="1.1" xmlns="http://www.w3.org/2000/svg" xmlns:xlink="http://www.w3.org/1999/xlink">
    <!-- Generator: Sketch 48.2 (47327) - http://www.bohemiancoding.com/sketch -->
    <title>notebook</title>
    <desc>Created with Sketch.</desc>
    <defs></defs>
    <g id="web-watch" stroke="none" stroke-width="1" fill-rule="evenodd" transform="translate(-164.000000, -565.000000)">
        <g id="Group" transform="translate(164.000000, 340.000000)"  fill-rule="nonzero">
            <g id="notebook" transform="translate(0.000000, 225.000000)">
                <path d="M0.431034483,18.5344828 C0.668965517,18.5344828 0.862068966,18.3418103 0.862068966,18.1034483 C0.862068966,17.3905172 1.44224138,16.8103448 2.15517241,16.8103448 C2.86810345,16.8103448 3.44827586,17.3905172 3.44827586,18.1034483 C3.44827586,18.3418103 3.64137931,18.5344828 3.87931034,18.5344828 C4.11724138,18.5344828 4.31034483,18.3418103 4.31034483,18.1034483 C4.31034483,16.9150862 3.34353448,15.9482759 2.15517241,15.9482759 C0.966810345,15.9482759 0,16.9150862 0,18.1034483 C0,18.3418103 0.193103448,18.5344828 0.431034483,18.5344828 Z" id="Shape"></path>
                <path d="M0.431034483,15.9482759 C0.668965517,15.9482759 0.862068966,15.7556034 0.862068966,15.5172414 C0.862068966,14.8043103 1.44224138,14.2241379 2.15517241,14.2241379 C2.86810345,14.2241379 3.44827586,14.8043103 3.44827586,15.5172414 C3.44827586,15.7556034 3.64137931,15.9482759 3.87931034,15.9482759 C4.11724138,15.9482759 4.31034483,15.7556034 4.31034483,15.5172414 C4.31034483,14.3288793 3.34353448,13.362069 2.15517241,13.362069 C0.966810345,13.362069 0,14.3288793 0,15.5172414 C0,15.7556034 0.193103448,15.9482759 0.431034483,15.9482759 Z" id="Shape"></path>
                <path d="M0.431034483,13.362069 C0.668965517,13.362069 0.862068966,13.1693966 0.862068966,12.9310345 C0.862068966,12.2181034 1.44224138,11.637931 2.15517241,11.637931 C2.86810345,11.637931 3.44827586,12.2181034 3.44827586,12.9310345 C3.44827586,13.1693966 3.64137931,13.362069 3.87931034,13.362069 C4.11724138,13.362069 4.31034483,13.1693966 4.31034483,12.9310345 C4.31034483,11.7426724 3.34353448,10.7758621 2.15517241,10.7758621 C0.966810345,10.7758621 0,11.7426724 0,12.9310345 C0,13.1693966 0.193103448,13.362069 0.431034483,13.362069 Z" id="Shape"></path>
                <path d="M0.431034483,10.7758621 C0.668965517,10.7758621 0.862068966,10.5831897 0.862068966,10.3448276 C0.862068966,9.63189655 1.44224138,9.05172414 2.15517241,9.05172414 C2.86810345,9.05172414 3.44827586,9.63189655 3.44827586,10.3448276 C3.44827586,10.5831897 3.64137931,10.7758621 3.87931034,10.7758621 C4.11724138,10.7758621 4.31034483,10.5831897 4.31034483,10.3448276 C4.31034483,9.15646552 3.34353448,8.18965517 2.15517241,8.18965517 C0.966810345,8.18965517 0,9.15646552 0,10.3448276 C0,10.5831897 0.193103448,10.7758621 0.431034483,10.7758621 Z" id="Shape"></path>
                <path d="M0.862068966,7.75862069 C0.862068966,7.04568966 1.44224138,6.46551724 2.15517241,6.46551724 C2.86810345,6.46551724 3.44827586,7.04568966 3.44827586,7.75862069 C3.44827586,7.99698276 3.64137931,8.18965517 3.87931034,8.18965517 C4.11724138,8.18965517 4.31034483,7.99698276 4.31034483,7.75862069 C4.31034483,6.57025862 3.34353448,5.60344828 2.15517241,5.60344828 C0.966810345,5.60344828 0,6.57025862 0,7.75862069 C0,7.99698276 0.193103448,8.18965517 0.431034483,8.18965517 C0.668965517,8.18965517 0.862068966,7.99698276 0.862068966,7.75862069 Z" id="Shape"></path>
                <path d="M21.5530172,0.00172413793 L20.6896552,0.00172413793 L17.6724138,0.00172413793 L7.32758621,0.00172413793 L7.32758621,0 L1.72413793,0 L1.72413793,3.06077586 C0.741810345,3.2612069 0,4.13146552 0,5.17241379 C0,5.41077586 0.193103448,5.60344828 0.431034483,5.60344828 C0.668965517,5.60344828 0.862068966,5.41077586 0.862068966,5.17241379 C0.862068966,4.45948276 1.44224138,3.87931034 2.15517241,3.87931034 C2.86810345,3.87931034 3.44827586,4.45948276 3.44827586,5.17241379 C3.44827586,5.41077586 3.64137931,5.60344828 3.87931034,5.60344828 C4.11724138,5.60344828 4.31034483,5.41077586 4.31034483,5.17241379 C4.31034483,4.13146552 3.56853448,3.2612069 2.5862069,3.06077586 L2.5862069,0.862068966 L6.46551724,0.862068966 L6.46551724,24.137931 L2.5862069,24.137931 L2.5862069,22.4137931 L2.5862069,21.1206897 C2.5862069,20.8823276 2.39310345,20.6896552 2.15517241,20.6896552 C1.91724138,20.6896552 1.72413793,20.8823276 1.72413793,21.1206897 L1.72413793,21.9030172 C1.2237069,21.724569 0.862068966,21.2508621 0.862068966,20.6896552 C0.862068966,19.9767241 1.44224138,19.3965517 2.15517241,19.3965517 C2.86810345,19.3965517 3.44827586,19.9767241 3.44827586,20.6896552 C3.44827586,20.9280172 3.64137931,21.1206897 3.87931034,21.1206897 C4.11724138,21.1206897 4.31034483,20.9280172 4.31034483,20.6896552 C4.31034483,19.5012931 3.34353448,18.5344828 2.15517241,18.5344828 C0.966810345,18.5344828 0,19.5012931 0,20.6896552 C0,21.7306034 0.741810345,22.6008621 1.72413793,22.8012931 L1.72413793,25 L6.46551724,25 L7.32758621,25 L17.6724138,25 L20.6896552,25 L21.5530172,25 C22.5030172,25 23.2758621,24.2271552 23.2758621,23.2775862 L23.2758621,1.72413793 C23.2758621,0.774568966 22.5030172,0.00172413793 21.5530172,0.00172413793 Z M7.32758621,24.137931 L7.32758621,0.863793103 L17.6724138,0.863793103 L17.6724138,24.137931 L7.32758621,24.137931 Z M18.5344828,24.137931 L18.5344828,0.863793103 L19.8275862,0.863793103 L19.8275862,24.137931 L18.5344828,24.137931 Z M22.4137931,23.2775862 C22.4137931,23.7517241 22.0275862,24.137931 21.5530172,24.137931 L20.6896552,24.137931 L20.6896552,0.863793103 L21.5530172,0.863793103 C22.0275862,0.863793103 22.4137931,1.24956897 22.4137931,1.72413793 L22.4137931,23.2775862 Z" id="Shape"></path>
            </g>
        </g>
    </g>
</svg>