<?xml version="1.0" encoding="UTF-8"?>
<svg width="24px" height="25px" viewBox="0 0 24 25" version="1.1" xmlns="http://www.w3.org/2000/svg" xmlns:xlink="http://www.w3.org/1999/xlink">
    <!-- Generator: Sketch 48.2 (47327) - http://www.bohemiancoding.com/sketch -->
    <title>exam</title>
    <desc>Created with Sketch.</desc>
    <defs></defs>
    <g id="web-watch" stroke="none" stroke-width="1"  fill-rule="evenodd" transform="translate(-164.000000, -490.000000)">
        <g id="Group" transform="translate(164.000000, 340.000000)" fill-rule="nonzero">
            <g id="exam" transform="translate(0.000000, 150.000000)">
                <path d="M17.4683723,15.3865984 C17.4683723,15.1570663 17.2820663,14.9707602 17.0525341,14.9707602 L14.5574074,14.9707602 C14.3278752,14.9707602 14.1415692,15.1570663 14.1415692,15.3865984 C14.1415692,15.6161306 14.3278752,15.8024366 14.5574074,15.8024366 L17.0525341,15.8024366 C17.2820663,15.8024854 17.4683723,15.6161793 17.4683723,15.3865984 Z" id="Shape"></path>
                <path d="M15.804922,4.5744152 L15.804922,2.49512671 C15.804922,2.26559454 15.618616,2.0792885 15.3890838,2.0792885 C15.1595517,2.0792885 14.9732456,2.26559454 14.9732456,2.49512671 L14.9732456,4.5744152 C14.9732456,5.72090643 15.9059942,6.6537037 17.0525341,6.6537037 L20.7952242,6.6537037 L20.7952242,14.554922 C20.7952242,14.7844542 20.9815302,14.9707602 21.2110624,14.9707602 C21.4405945,14.9707602 21.6269006,14.7844542 21.6269006,14.554922 L21.6269006,6.23781676 C21.6269006,6.0082846 21.4405945,5.82197856 21.2110624,5.82197856 L17.0525341,5.82197856 C16.3646686,5.82197856 15.804922,5.26223197 15.804922,4.5744152 Z" id="Shape"></path>
                <path d="M17.0524854,9.98050682 L13.7256335,9.98050682 C13.4961014,9.98050682 13.3097953,10.1668129 13.3097953,10.396345 C13.3097953,10.6258772 13.4961014,10.8121832 13.7256335,10.8121832 L17.0524854,10.8121832 C17.2820175,10.8121832 17.4683236,10.6258772 17.4683236,10.396345 C17.4683723,10.1668129 17.2820663,9.98050682 17.0524854,9.98050682 Z" id="Shape"></path>
                <path d="M12.4781189,10.396345 C12.4781189,10.1668129 12.2918129,9.98050682 12.0622807,9.98050682 L9.567154,9.98050682 C9.33762183,9.98050682 9.15131579,10.1668129 9.15131579,10.396345 C9.15131579,10.6258772 9.33762183,10.8121832 9.567154,10.8121832 L12.0622807,10.8121832 C12.2918129,10.812232 12.4781189,10.6259259 12.4781189,10.396345 Z" id="Shape"></path>
                <path d="M9.56710526,12.4756335 C9.3375731,12.4756335 9.15126706,12.6619396 9.15126706,12.8914717 C9.15126706,13.1210039 9.3375731,13.3073099 9.56710526,13.3073099 L10.3988304,13.3073099 C10.6283626,13.3073099 10.8146686,13.1210039 10.8146686,12.8914717 C10.8146686,12.6619396 10.6283626,12.4756335 10.3988304,12.4756335 L9.56710526,12.4756335 Z" id="Shape"></path>
                <path d="M9.56710526,8.31710526 L13.7256335,8.31710526 C13.9551657,8.31710526 14.1414717,8.13079922 14.1414717,7.90126706 C14.1414717,7.67173489 13.9551657,7.48542885 13.7256335,7.48542885 L9.56710526,7.48542885 C9.3375731,7.48542885 9.15126706,7.67173489 9.15126706,7.90126706 C9.15126706,8.13079922 9.3375731,8.31710526 9.56710526,8.31710526 Z" id="Shape"></path>
                <path d="M12.062232,13.3073587 L16.2207602,13.3073587 C16.4502924,13.3073587 16.6365984,13.1210526 16.6365984,12.8915205 C16.6365984,12.6619883 16.4502924,12.4756823 16.2207602,12.4756823 L12.062232,12.4756823 C11.8326998,12.4756823 11.6463938,12.6619883 11.6463938,12.8915205 C11.6463938,13.1210526 11.8326998,13.3073587 12.062232,13.3073587 Z" id="Shape"></path>
                <path d="M14.5573587,17.4658869 C14.3278265,17.4658869 14.1415205,17.652193 14.1415205,17.8817251 C14.1415205,18.1112573 14.3278265,18.2975634 14.5573587,18.2975634 L15.3890838,18.2975634 C15.618616,18.2975634 15.804922,18.1112573 15.804922,17.8817251 C15.804922,17.652193 15.618616,17.4658869 15.3890838,17.4658869 L14.5573587,17.4658869 Z" id="Shape"></path>
                <path d="M12.8939571,14.9707602 L9.56710526,14.9707602 C9.3375731,14.9707602 9.15126706,15.1570663 9.15126706,15.3865984 C9.15126706,15.6161306 9.3375731,15.8024366 9.56710526,15.8024366 L12.8939571,15.8024366 C13.1234893,15.8024366 13.3097953,15.6161306 13.3097953,15.3865984 C13.3097953,15.1570663 13.1234893,14.9707602 12.8939571,14.9707602 Z" id="Shape"></path>
                <path d="M12.8939571,17.4658869 L9.56710526,17.4658869 C9.3375731,17.4658869 9.15126706,17.652193 9.15126706,17.8817251 C9.15126706,18.1112573 9.3375731,18.2975634 9.56710526,18.2975634 L12.8939571,18.2975634 C13.1234893,18.2975634 13.3097953,18.1112573 13.3097953,17.8817251 C13.3097953,17.652193 13.1234893,17.4658869 12.8939571,17.4658869 Z" id="Shape"></path>
                <path d="M22.7950292,17.1294834 L21.9633041,16.2977583 C21.3241228,15.658577 20.3501949,15.6598441 19.7118908,16.2977583 L14.2633528,21.7462963 C14.185575,21.8240741 14.1415205,21.930117 14.1415205,22.0403021 L14.1415205,24.5354288 C14.1415205,24.764961 14.3278265,24.9512671 14.5573587,24.9512671 L17.0524854,24.9512671 C17.1626706,24.9512671 17.2687135,24.9072125 17.3464912,24.8294347 L22.7950292,19.3808967 C23.4575049,18.7184211 23.4575049,17.7923489 22.7950292,17.1294834 Z M19.1741715,18.011501 L19.8337232,18.6710526 L16.2207602,22.2840156 L15.5612086,21.6244639 L19.1741715,18.011501 Z M14.9732456,24.1195419 L14.9732456,22.2124269 L16.8803606,24.1195419 L14.9732456,24.1195419 Z M17.4683723,23.5315302 L16.8088207,22.8719786 L20.4217836,19.2590156 L21.0813353,19.9185673 L17.4683723,23.5315302 Z M22.2070175,18.792885 L21.6692982,19.3306043 L19.7621832,17.4234893 L20.2999025,16.88577 C20.6284113,16.5576511 21.0451267,16.5559942 21.3752924,16.88577 L22.2070175,17.7174951 C22.5434211,18.0543372 22.5434211,18.4564327 22.2070175,18.792885 Z" id="Shape"></path>
                <path d="M12.8939571,24.1195419 L2.08172515,24.1195419 C1.39390838,24.1195419 0.834161793,23.5597953 0.834161793,22.8719786 L0.834161793,2.0792885 C0.834161793,1.39147173 1.39390838,0.831725146 2.08172515,0.831725146 L15.2169103,0.831725146 L19.2536062,4.86842105 C19.4161793,5.03104288 19.6790448,5.03104288 19.8416179,4.86842105 C20.0042398,4.70584795 20.0042398,4.44298246 19.8416179,4.28040936 L15.6830897,0.121832359 C15.6053119,0.0436647173 15.499269,0 15.3890838,0 L2.08172515,0 C0.935233918,0 0.00248538012,0.932748538 0.00248538012,2.0792885 L0.00248538012,22.8720273 C0.00248538012,24.0185185 0.935233918,24.9513158 2.08177388,24.9513158 L12.8940058,24.9513158 C13.123538,24.9513158 13.3098441,24.7650097 13.3098441,24.5354776 C13.3098441,24.3059454 13.1234893,24.1195419 12.8939571,24.1195419 Z" id="Shape"></path>
                <path d="M12.8939571,19.9610136 L9.56710526,19.9610136 C9.3375731,19.9610136 9.15126706,20.1473197 9.15126706,20.3768519 C9.15126706,20.606384 9.3375731,20.7926901 9.56710526,20.7926901 L12.8939571,20.7926901 C13.1234893,20.7926901 13.3097953,20.606384 13.3097953,20.3768519 C13.3097953,20.1473197 13.1234893,19.9610136 12.8939571,19.9610136 Z" id="Shape"></path>
                <path d="M7.4878655,7.90121832 C7.4878655,7.67168616 7.30155945,7.48538012 7.07202729,7.48538012 L4.57690058,7.48538012 C4.34736842,7.48538012 4.16106238,7.67168616 4.16106238,7.90121832 L4.16106238,10.396345 C4.16106238,10.6258772 4.34736842,10.8121832 4.57690058,10.8121832 L7.07202729,10.8121832 C7.30155945,10.8121832 7.4878655,10.6258772 7.4878655,10.396345 L7.4878655,7.90121832 Z M6.65614035,9.98050682 L4.99273879,9.98050682 L4.99273879,8.31710526 L6.65614035,8.31710526 L6.65614035,9.98050682 Z" id="Shape"></path>
                <path d="M4.57685185,20.7927388 L7.07197856,20.7927388 C7.30151072,20.7927388 7.48781676,20.6064327 7.48781676,20.3769006 L7.48781676,17.8817739 C7.48781676,17.6522417 7.30151072,17.4659357 7.07197856,17.4659357 L4.57685185,17.4659357 C4.34731969,17.4659357 4.16101365,17.6522417 4.16101365,17.8817739 L4.16101365,20.3769006 C4.16101365,20.6064327 4.34731969,20.7927388 4.57685185,20.7927388 Z M4.99273879,18.2976121 L6.65614035,18.2976121 L6.65614035,19.9610136 L4.99273879,19.9610136 L4.99273879,18.2976121 Z" id="Shape"></path>
                <path d="M5.11457115,15.6806043 C5.19273879,15.7587719 5.29878168,15.8024366 5.408577,15.8024366 C5.42231969,15.8024366 5.43562378,15.8020468 5.44975634,15.8003411 C5.57368421,15.7883041 5.68552632,15.7209064 5.7545809,15.6173489 L7.41798246,13.1222222 C7.54522417,12.9309454 7.49366472,12.6726608 7.30277778,12.5454191 C7.11106238,12.4177388 6.85365497,12.4697368 6.72597466,12.6606238 L5.34410331,14.7336745 L4.8708577,14.2608674 C4.7082846,14.0982456 4.4454191,14.0982456 4.282846,14.2608674 C4.1202729,14.4234893 4.12022417,14.686306 4.282846,14.8488791 L5.11457115,15.6806043 Z" id="Shape"></path>
            </g>
        </g>
    </g>
</svg>