<?xml version="1.0" encoding="UTF-8"?>
<svg width="25px" height="25px" viewBox="0 0 25 25" version="1.1" xmlns="http://www.w3.org/2000/svg" xmlns:xlink="http://www.w3.org/1999/xlink">
    <!-- Generator: Sketch 48.2 (47327) - http://www.bohemiancoding.com/sketch -->
    <title>open-book (1)</title>
    <desc>Created with Sketch.</desc>
    <defs></defs>
    <g id="web-watch" stroke="none" stroke-width="1"  fill-rule="evenodd" transform="translate(-164.000000, -415.000000)">
        <g id="Group" transform="translate(164.000000, 340.000000)"  fill-rule="nonzero">
            <g id="open-book-(1)" transform="translate(0.000000, 75.000000)">
                <path d="M14.1840643,11.8328947 C14.2576511,11.9768031 14.4040448,12.0599415 14.5554094,12.0599415 C14.618616,12.0599415 14.6834795,12.0453704 14.7438109,12.0146199 C14.7683236,12.0021442 17.2160819,10.7587232 18.4232943,10.3773879 C18.6420565,10.3079435 18.7634503,10.0742203 18.6940058,9.85550682 C18.6249513,9.63674464 18.3929337,9.51491228 18.1721248,9.58396686 C16.9004386,9.98611111 14.469347,11.2211988 14.3662281,11.2735867 C14.1615984,11.3775341 14.080117,11.627924 14.1840643,11.8328947 Z" id="Shape"></path>
                <path d="M14.5554094,7.06973684 C14.618616,7.06973684 14.6834795,7.05516569 14.7438109,7.0244152 C14.7683236,7.01193957 17.2160819,5.76851852 18.4232943,5.38718324 C18.6420565,5.31773879 18.7634503,5.08401559 18.6940058,4.86530214 C18.6249513,4.64653996 18.3929337,4.5247076 18.1721248,4.59376218 C16.9004386,4.99590643 14.469347,6.23099415 14.3662281,6.28338207 C14.1616472,6.38732943 14.080117,6.63767057 14.1840643,6.84269006 C14.2576511,6.98654971 14.4040448,7.06973684 14.5554094,7.06973684 Z" id="Shape"></path>
                <path d="M24.5355263,6.2380117 C24.3055556,6.2380117 24.1196881,6.42431774 24.1196881,6.6538499 L24.1196881,22.8721735 C24.1196881,23.5599903 23.5599415,24.1197368 22.8721248,24.1197368 L12.8916179,24.1197368 L12.8916179,23.1628655 C13.4979532,22.9507797 15.0773392,22.4563353 16.634308,22.4563353 C20.2568226,22.4563353 22.7166179,23.2585283 22.7411306,23.2668129 C22.8662768,23.3083821 23.0060429,23.2876218 23.1153996,23.2094055 C23.2239279,23.1312378 23.287963,23.005653 23.287963,22.8721248 L23.287963,4.57461014 C23.287963,4.3795809 23.1528265,4.21072125 22.9623294,4.16871345 C22.9623294,4.16871345 22.636306,4.09595517 22.0790448,3.99361598 C21.8540448,3.95204678 21.6365984,4.10175439 21.5949805,4.32714425 C21.5534113,4.55336257 21.7026803,4.77002924 21.9285088,4.81159844 C22.1410331,4.85068226 22.3190058,4.88518519 22.4562378,4.91267057 L22.4562378,22.3194932 C21.5138889,22.0724659 19.421345,21.6246101 16.6342593,21.6246101 C14.8223684,21.6246101 13.0425439,22.2196881 12.4919103,22.4213938 C12.0024366,22.2051657 10.5228558,21.6246101 8.7329922,21.6246101 C5.86856725,21.6246101 3.50901559,22.0970273 2.49517544,22.3369883 L2.49517544,4.8964425 C3.32563353,4.69225146 5.77836257,4.1587232 8.7329922,4.1587232 C10.2492203,4.1587232 11.5495614,4.63070175 12.0598441,4.84405458 L12.0598441,21.2087719 C12.0598441,21.3584795 12.1404971,21.4969786 12.2706628,21.5705653 C12.4008285,21.6445906 12.5613548,21.6424951 12.6898635,21.5651559 C12.7310429,21.5406433 16.8513158,19.0795809 20.5083333,17.8607212 C20.6784113,17.8037524 20.7927875,17.6453216 20.7927875,17.4660819 L20.7927875,0.416033138 C20.7927875,0.27962963 20.7258285,0.151949318 20.6135478,0.0742202729 C20.5020955,-0.00355750487 20.3590643,-0.0214424951 20.2305556,0.0264132554 C16.9033138,1.27436647 13.5365984,3.36944444 13.5028752,3.39025341 C13.3082359,3.51208577 13.2487817,3.76866472 13.370614,3.96330409 C13.4920565,4.15794347 13.7486355,4.21739766 13.9436647,4.0955653 C13.9744152,4.07602339 16.9033138,2.25375244 19.9610624,1.02407407 L19.9610624,17.1683723 C17.1224172,18.1547758 14.1586257,19.7653996 12.8915205,20.4864522 L12.8915205,4.57461014 C12.8915205,4.4170078 12.8025341,4.27309942 12.6615497,4.20243665 C12.5900097,4.16710526 10.8858674,3.32704678 8.7329922,3.32704678 C4.97534113,3.32704678 2.08640351,4.14005848 1.96496101,4.17495127 C1.78654971,4.22568226 1.66345029,4.38913255 1.66345029,4.57461014 L1.66345029,22.8722222 C1.66345029,23.0023879 1.725,23.1254873 1.8285575,23.2040936 C1.90175439,23.2594055 1.98991228,23.2881092 2.07933723,23.2881092 C2.11759259,23.2881092 2.15584795,23.2826998 2.19327485,23.2718811 C2.22197856,23.2639864 5.09761209,22.456384 8.7329922,22.456384 C10.2533626,22.456384 11.5524854,22.9296296 12.0598441,23.1421053 L12.0598441,24.1197856 L2.07933723,24.1197856 C1.39152047,24.1197856 0.831773879,23.560039 0.831773879,22.8722222 L0.831773879,6.65389864 C0.831773879,6.42436647 0.645467836,6.23806043 0.415935673,6.23806043 C0.186403509,6.23806043 9.74658869e-05,6.42436647 9.74658869e-05,6.65389864 L9.74658869e-05,22.8722222 C9.74658869e-05,24.0187135 0.932846004,24.9515107 2.07938596,24.9515107 L22.8721248,24.9515107 C24.018616,24.9515107 24.9514133,24.0187622 24.9514133,22.8722222 L24.9514133,6.65389864 C24.9513645,6.42431774 24.7654971,6.2380117 24.5355263,6.2380117 Z" id="Shape"></path>
                <path d="M14.1840643,9.33776803 C14.2576511,9.48167641 14.4040448,9.56481481 14.5554094,9.56481481 C14.618616,9.56481481 14.6834795,9.55024366 14.7438109,9.51949318 C14.7683236,9.50701754 17.2160819,8.26359649 18.4232943,7.88226121 C18.6420565,7.81281676 18.7634503,7.57909357 18.6940058,7.36038012 C18.6249513,7.14161793 18.3929337,7.01978558 18.1721248,7.08884016 C16.9004386,7.49098441 14.469347,8.72607212 14.3662281,8.77846004 C14.1615984,8.88240741 14.080117,9.13279727 14.1840643,9.33776803 Z" id="Shape"></path>
                <path d="M14.1840643,14.3280214 C14.2576511,14.4719298 14.4040448,14.5550682 14.5554094,14.5550682 C14.618616,14.5550682 14.6834795,14.5404971 14.7438109,14.5097466 C14.7683236,14.497271 17.2160819,13.2538499 18.4232943,12.8725146 C18.6420565,12.8030702 18.7634503,12.569347 18.6940058,12.3506335 C18.6249513,12.1318713 18.3929337,12.010039 18.1721248,12.0790936 C16.9004386,12.4812378 14.469347,13.7163255 14.3662281,13.7687135 C14.1615984,13.8726608 14.080117,14.1230507 14.1840643,14.3280214 Z" id="Shape"></path>
                <path d="M10.0754386,7.71764133 C7.50755361,7.11505848 4.58947368,7.88274854 4.46681287,7.91559454 C4.24517544,7.97504873 4.11335283,8.20292398 4.17280702,8.425 C4.22270955,8.61086745 4.39069201,8.7331384 4.57412281,8.7331384 C4.60989279,8.7331384 4.64605263,8.7285575 4.68226121,8.71900585 C4.71013645,8.71111111 7.51963938,7.97212476 9.88586745,8.52729045 C10.1083333,8.5792885 10.3333333,8.44078947 10.3857212,8.21705653 C10.4380604,7.99376218 10.2991715,7.77002924 10.0754386,7.71764133 Z" id="Shape"></path>
                <path d="M10.0754386,10.212768 C7.50755361,9.61062378 4.58947368,10.3778752 4.46681287,10.4107212 C4.24517544,10.4701754 4.11335283,10.6980994 4.17280702,10.9201267 C4.22270955,11.1059942 4.39069201,11.2282651 4.57412281,11.2282651 C4.60989279,11.2282651 4.64605263,11.2236842 4.68226121,11.2141326 C4.71013645,11.2062378 7.51963938,10.4672515 9.88586745,11.0224172 C10.1083333,11.0744152 10.3333333,10.9359162 10.3857212,10.7121832 C10.4380604,10.4888889 10.2991715,10.2651559 10.0754386,10.212768 Z" id="Shape"></path>
                <path d="M14.1840643,16.8231481 C14.2576511,16.9670565 14.4040448,17.0501949 14.5554094,17.0501949 C14.618616,17.0501949 14.6834795,17.0356238 14.7438109,17.0048733 C14.7683236,16.9923977 17.2160819,15.7489766 18.4232943,15.3676413 C18.6420565,15.2981969 18.7634503,15.0644737 18.6940058,14.8457602 C18.6249513,14.6270468 18.3929337,14.5051657 18.1721248,14.5742203 C16.9004386,14.9763645 14.469347,16.2114522 14.3662281,16.2638402 C14.1615984,16.3677875 14.080117,16.6181774 14.1840643,16.8231481 Z" id="Shape"></path>
                <path d="M10.0754386,12.7078947 C7.50755361,12.1057505 4.58947368,12.8725634 4.46681287,12.905848 C4.24517544,12.9653021 4.11335283,13.1932261 4.17280702,13.4152534 C4.22270955,13.6011209 4.39069201,13.7238304 4.57412281,13.7238304 C4.60989279,13.7238304 4.64605263,13.7188596 4.68226121,13.7092593 C4.71013645,13.7013645 7.51963938,12.9623782 9.88586745,13.5175439 C10.1083333,13.5695419 10.3333333,13.4310429 10.3857212,13.2073099 C10.4380604,12.9840156 10.2991715,12.7602827 10.0754386,12.7078947 Z" id="Shape"></path>
                <path d="M10.0754386,17.6981481 C7.50755361,17.0955653 4.58947368,17.8632554 4.46681287,17.8961014 C4.24517544,17.9555556 4.11335283,18.1834795 4.17280702,18.4055068 C4.22270955,18.5913743 4.39069201,18.7140838 4.57412281,18.7140838 C4.60989279,18.7140838 4.64605263,18.7091131 4.68226121,18.6995127 C4.71013645,18.6916179 7.51963938,17.9526316 9.88586745,18.5077973 C10.1083333,18.5593567 10.3333333,18.4212963 10.3857212,18.1975634 C10.4380604,17.974269 10.2991715,17.7505361 10.0754386,17.6981481 Z" id="Shape"></path>
                <path d="M10.0754386,15.2030214 C7.50755361,14.6004386 4.58947368,15.3676901 4.46681287,15.4009747 C4.24517544,15.4604288 4.11335283,15.6883528 4.17280702,15.9103801 C4.22270955,16.0962476 4.39069201,16.2189571 4.57412281,16.2189571 C4.60989279,16.2189571 4.64605263,16.2139864 4.68226121,16.204386 C4.71013645,16.1964912 7.51963938,15.4575049 9.88586745,16.0126706 C10.1083333,16.0646686 10.3333333,15.9261696 10.3857212,15.7024366 C10.4380604,15.4791423 10.2991715,15.2554094 10.0754386,15.2030214 Z" id="Shape"></path>
            </g>
        </g>
    </g>
</svg>