<?xml version="1.0" encoding="UTF-8"?>
<svg width="16px" height="16px" viewBox="0 0 16 16" version="1.1" xmlns="http://www.w3.org/2000/svg" xmlns:xlink="http://www.w3.org/1999/xlink">
    <!-- Generator: Sketch 48.2 (47327) - http://www.bohemiancoding.com/sketch -->
    <title>Page 1</title>
    <desc>Created with Sketch.</desc>
    <defs></defs>
    <g id="web-course-page" stroke="none" stroke-width="1" fill="none" fill-rule="evenodd" transform="translate(-48.000000, -551.000000)">
        <path d="M61.5936297,559.767642 L63.1378012,560.969722 C63.2762492,561.073009 63.3099455,561.278849 63.2073915,561.450261 L61.7306126,563.991405 C61.627326,564.162817 61.4559142,564.197246 61.2845024,564.129853 L59.4648999,563.408312 C59.0869148,563.68301 58.6752334,563.957709 58.2283906,564.129853 L57.9536922,566.052742 C57.9185308,566.223421 57.7822804,566.361137 57.610136,566.361137 L54.6573109,566.361137 C54.4858991,566.361137 54.3481836,566.223421 54.3137547,566.052742 L54.0390563,564.129853 C53.592946,563.957709 53.1805321,563.716707 52.802547,563.408312 L50.9829445,564.129853 C50.8115327,564.197978 50.6393883,564.163549 50.5368342,563.991405 L49.0600554,561.450261 C48.9567688,561.278849 48.9911977,561.072276 49.1289132,560.969722 L50.6738172,559.767642 C50.6393883,559.527372 50.6393883,559.287103 50.6393883,559.046833 C50.6393883,558.806563 50.6393883,558.566294 50.6738172,558.326024 L49.1289132,557.123944 C48.9911977,557.020657 48.9575013,556.814817 49.0600554,556.643405 L50.5368342,554.102261 C50.6401209,553.930849 50.8115327,553.89642 50.9829445,553.964546 L52.802547,554.685354 C53.1805321,554.410656 53.5922135,554.135957 54.0390563,553.964546 L54.3137547,552.041656 C54.3481836,551.870245 54.4851665,551.732529 54.6573109,551.732529 L57.610136,551.732529 C57.7815478,551.732529 57.9185308,551.870245 57.9536922,552.041656 L58.2283906,553.964546 C58.6745009,554.135957 59.0869148,554.37696 59.4648999,554.685354 L61.2845024,553.964546 C61.4559142,553.895688 61.6280585,553.930117 61.7306126,554.102261 L63.2073915,556.643405 C63.3106781,556.814817 63.2762492,557.02139 63.1378012,557.123944 L61.5936297,558.326024 C61.6280585,558.566294 61.6280585,558.806563 61.6280585,559.046833 C61.6280585,559.287103 61.6280585,559.527372 61.5936297,559.767642 Z M56.1340897,561.622406 C57.5420108,561.622406 58.7089298,560.454754 58.7089298,559.046833 C58.7089298,557.638912 57.5420108,556.47126 56.1340897,556.47126 C54.7261686,556.47126 53.5585171,557.638912 53.5585171,559.046833 C53.5585171,560.454754 54.7261686,561.622406 56.1340897,561.622406 Z" id="Page-1" stroke="#BDBDBD"></path>
    </g>
</svg>