<?xml version="1.0" encoding="UTF-8"?>
<svg width="25px" height="25px" viewBox="0 0 25 25" version="1.1" xmlns="http://www.w3.org/2000/svg" xmlns:xlink="http://www.w3.org/1999/xlink">
    <!-- Generator: Sketch 48.2 (47327) - http://www.bohemiancoding.com/sketch -->
    <title>male-cartoon-pointing-to-white-board</title>
    <desc>Created with Sketch.</desc>
    <defs></defs>
    <g id="web-watch" stroke="none" stroke-width="1"  fill-rule="evenodd" transform="translate(-164.000000, -340.000000)">
        <g id="Group" transform="translate(164.000000, 340.000000)" fill-rule="nonzero">
            <g id="male-cartoon-pointing-to-white-board">
                <path d="M0.391329309,7.33818648 C0.391329309,5.51857021 1.89805468,4.04470931 3.75947359,4.04470931 C5.61447272,4.04470931 7.11798819,5.51857021 7.11798819,7.33818648 C7.11798819,9.15874573 5.61447272,10.630092 3.75947359,10.630092 C1.89805468,10.6297777 0.391329309,9.1584314 0.391329309,7.33818648 Z M15.2830016,10.4198099 C14.7427761,10.1014006 14.0446236,10.2667346 13.7156092,10.7932257 L11.4715707,14.3975684 L8.30693381,12.6665912 C6.88430773,11.8081749 6.19032813,11.4011265 4.07757433,11.4011265 L3.75594271,11.4011265 L3.43431109,11.4011265 C-0.664084624,11.8700966 0.047228416,15.0846786 0.047228416,15.0846786 L0.047228416,24.9217336 L7.47364471,24.9217336 L7.47364471,15.0846786 L11.3197426,16.8719196 C11.4969288,16.9696741 11.6863127,17.013365 11.8747337,17.013365 C12.2612052,17.013365 12.6351581,16.8228852 12.8511841,16.4777585 L15.6669053,11.9546495 C15.9914258,11.4281583 15.8232272,10.7413624 15.2830016,10.4198099 Z M6.17299469,10.0781407 C5.92294376,10.2881085 5.65042356,10.4672727 5.35254517,10.6087181 L5.35254517,11.1279798 C5.65010257,11.162241 5.92262277,11.2100181 6.17299469,11.2769689 L6.17299469,10.0781407 Z M25,0 L5.35254517,0 L5.35254517,4.06796922 C5.65010257,4.20784299 5.92262277,4.38795011 6.17299469,4.59791792 L6.17299469,0.801523838 L24.1837233,0.801523838 L24.1837233,12.8661864 L15.5092993,12.8661864 L15.0104814,13.6683389 L25,13.6683389 L25,0 Z M11.5158672,13.6683389 L12.017574,12.8661864 L9.3947677,12.8661864 L10.8597644,13.6683389 L11.5158672,13.6683389 Z M18.2582546,5.42600206 L18.2582546,5.42600206 C18.1484893,5.36431996 18.0095428,5.40196331 17.9459251,5.51061829 L15.4267177,9.81326709 C15.3641603,9.92011115 15.4000618,10.0574381 15.5069058,10.1199955 C15.5079661,10.1206163 15.5090315,10.1212283 15.5101018,10.1218316 L15.5101018,10.1218316 C15.6202595,10.18392 15.7598557,10.1461666 15.8237031,10.037019 L18.3414627,5.73289059 C18.403625,5.62662377 18.3678712,5.49008504 18.2616044,5.4279228 C18.2604933,5.42727289 18.2593767,5.42663262 18.2582546,5.42600206 Z" id="Shape"></path>
            </g>
        </g>
    </g>
</svg>